<?xml version="1.0" encoding="UTF-8"?>
<svg width="100px" height="100px" viewBox="0 0 100 100" version="1.1" xmlns="http://www.w3.org/2000/svg" xmlns:xlink="http://www.w3.org/1999/xlink">
    <!-- Generator: Sketch 56.3 (81716) - https://sketch.com -->
    <title>simbolo-tec-blue</title>
    <desc>Created with Sketch.</desc>
    <g id="Page-1" stroke="none" stroke-width="1" fill="none" fill-rule="evenodd">
        <g id="Group" fill="#0033A0" fill-rule="nonzero">
            <path d="M76.3537253,40.3989865 C72.9778519,43.7690313 66.2850907,50.143206 60.9173992,55.4545529 C48.2449707,66.9840021 48.0423832,74.4147203 48.7238777,77.8957962 C39.3953721,66.990287 46.7938542,58.8179636 51.5390367,54.1902624 C53.7155358,52.0562267 67.1600439,38.8798128 70.2388827,35.9531951 C81.1266451,25.5965576 81.1234851,22.496759 81.1234851,22.496759 C85.2612562,32.2357412 79.7264388,37.0345283 76.3537253,40.3989865 L76.3537253,40.3989865 Z M76.0307089,56.5599777 C72.7169809,59.7921063 74.0473173,58.4977884 68.6785725,63.7368602 C59.9462431,72.2366909 59.8967372,77.8957962 59.8967372,77.8957962 C55.0230505,72.5718799 58.014464,63.7218464 63.2557577,58.6165012 C65.432608,56.4897976 69.4861138,52.6662005 72.3736004,49.9379028 C78.2732158,44.3688797 80.1158142,42.7386747 80.9507415,40.5903236 C83.2093992,49.9267299 78.2461807,54.2017845 76.0307089,56.5599777 L76.0307089,56.5599777 Z M39.8893766,49.8356005 C42.3084894,47.5063869 57.7075984,32.4368544 60.6473996,29.5922883 C70.1883237,20.3525978 69.7589223,17.4514684 69.7589223,17.4514684 C73.8787871,27.1894031 68.2319672,32.5108754 64.8360808,35.8505437 C61.1364886,39.490485 51.7721703,48.6463783 46.3777949,53.9228097 C32.8325198,67.1704509 37.687247,77.8933521 37.687247,77.8933521 C29.0869329,71.5530454 31.015903,58.4593814 39.8893766,49.8356005 L39.8893766,49.8356005 Z M34.2671342,39.4377627 C36.7020466,37.0457014 49.7845655,24.2809414 54.2134027,19.9947138 C63.5138197,10.9900048 62.9745227,7.41256198 63.3951463,5.53690099 C69.9098974,12.1851626 65.9111639,18.9308384 62.3772933,22.4342602 C59.2816016,25.5036823 44.7546371,40.0980148 38.8490529,45.4544027 C37.3445686,46.819599 27.5645422,55.7422567 28.2017973,64.0119943 C22.743872,57.1374803 24.2118416,48.425014 34.2671342,39.4377627 L34.2671342,39.4377627 Z M22.3092041,35.7890922 C24.501503,33.5185369 41.132288,17.3816373 43.9520113,14.5583695 C50.8319114,7.68839449 49.4713801,2.14939857 49.4713801,2.14939857 C57.4330343,8.1747675 54.5051707,14.6809229 50.1855274,18.8418038 C46.6807984,22.235591 34.2615165,34.6588774 28.5244628,40.1301371 C19.4189088,48.8314304 20.5245381,56.0170417 22.2470587,62.1663607 C15.5746615,55.3532979 12.5463818,45.9044637 22.3092041,35.7890922 L22.3092041,35.7890922 Z M49.7884277,7.10542736e-15 C22.2905957,7.10542736e-15 7.10542736e-15,22.1668075 7.10542736e-15,49.5115845 C7.10542736e-15,74.7600345 19.0063606,95.5930698 43.5682537,98.637702 L43.5682537,91.628414 C35.3618792,90.4014831 27.1737623,87.6372224 21.7172414,80.1914907 L77.8582096,80.1914907 C72.4006355,87.6372224 64.2135719,90.4014831 56.0071973,91.628414 L56.0071973,98.637702 C80.5690905,95.5930698 99.5754511,74.7600345 99.5754511,49.5115845 C99.5754511,22.1668075 77.2841532,7.10542736e-15 49.7884277,7.10542736e-15 L49.7884277,7.10542736e-15 Z" id="isotype-blue"></path>
        </g>
    </g>
</svg>